<?xml version="1.0" standalone="no"?>
<!DOCTYPE svg PUBLIC "-//W3C//DTD SVG 20010904//EN"
 "http://www.w3.org/TR/2001/REC-SVG-20010904/DTD/svg10.dtd">
<svg version="1.0" xmlns="http://www.w3.org/2000/svg"
 width="1024.000000pt" height="1536.000000pt" viewBox="0 0 1024.000000 1536.000000"
 preserveAspectRatio="xMidYMid meet">

<g transform="translate(0.000000,1536.000000) scale(0.100000,-0.100000)"
fill="#000000" stroke="none">
<path d="M5035 10626 c-155 -47 -331 -97 -625 -178 -140 -39 -300 -82 -355
-98 -260 -71 -335 -95 -335 -107 0 -7 3 -13 8 -13 39 0 910 238 1253 342 l166
50 114 -35 c98 -30 447 -134 714 -212 144 -42 479 -134 514 -141 25 -5 32 -4
27 4 -4 7 -13 12 -21 12 -7 0 -15 4 -17 9 -1 4 -68 27 -148 49 -80 23 -230 67
-335 97 -104 31 -260 76 -345 101 -136 39 -448 134 -490 148 -8 3 -64 -10
-125 -28z"/>
<path d="M4930 10514 c-195 -57 -420 -120 -835 -234 -292 -81 -407 -118 -417
-134 -5 -7 -8 -6 -8 4 -1 30 -20 -13 -20 -45 0 -66 126 -639 235 -1065 l55
-215 67 -63 c38 -35 82 -73 99 -85 27 -19 239 -187 473 -375 422 -340 552
-442 565 -442 8 0 55 31 103 69 139 110 143 113 143 108 0 -3 -49 -47 -110
-97 -108 -91 -139 -122 -81 -81 36 26 45 26 31 2 -12 -23 -1 -34 20 -20 10 6
11 9 3 9 -7 0 -13 5 -13 11 0 5 4 8 9 5 5 -3 21 4 35 15 15 12 30 19 33 15 4
-3 18 1 32 10 35 22 16 4 -93 -86 -48 -41 -92 -83 -96 -94 -7 -19 3 -54 20
-66 4 -3 3 -20 -2 -38 -7 -27 -11 -30 -22 -19 -21 21 -29 56 -15 73 10 12 9
13 -6 8 -13 -5 -16 -4 -11 4 8 13 2 19 -174 182 -175 161 -190 174 -421 366
-534 444 -596 493 -624 494 -5 0 -3 -5 5 -10 12 -8 9 -9 -12 -8 -15 1 -26 5
-26 8 1 17 -4 30 -16 42 -18 19 -31 94 -17 103 6 3 11 18 10 33 -1 26 -1 26
-10 -5 -12 -42 -24 -43 -15 -3 3 19 2 29 -4 25 -6 -3 -10 1 -10 9 0 9 5 16 11
16 19 0 1 100 -115 655 -20 94 -43 206 -52 250 -19 92 -51 215 -59 223 -17 17
-35 8 -35 -16 0 -33 74 -402 164 -817 15 -71 53 -235 82 -355 27 -107 46 -164
63 -184 32 -38 406 -372 651 -581 64 -55 175 -152 246 -215 71 -64 147 -131
170 -150 22 -19 77 -68 122 -107 45 -40 86 -73 91 -73 20 0 775 671 1081 960
80 75 159 150 175 165 17 15 22 22 13 15 -10 -7 -18 -9 -18 -4 0 4 -6 0 -13
-11 -9 -11 -19 -15 -27 -10 -10 6 -9 9 1 16 11 7 10 9 -3 9 -10 0 -55 -30
-100 -67 -46 -37 -130 -105 -188 -151 -58 -46 -151 -121 -207 -168 -56 -46
-105 -79 -108 -74 -3 6 5 14 19 20 23 8 53 46 48 62 -1 4 4 5 11 3 20 -7 50
23 52 52 0 17 7 28 16 28 21 1 40 15 34 26 -10 16 -20 11 -99 -52 -43 -33 -80
-59 -82 -56 -2 2 22 24 53 49 32 26 103 83 158 127 55 45 166 133 248 197 81
63 147 122 147 130 0 8 5 12 10 9 6 -3 10 -4 10 -2 0 2 16 82 35 178 106 539
176 945 174 1022 -1 28 -3 44 -6 35 -5 -20 -19 -24 -25 -6 -2 6 -11 12 -20 14
-11 1 -15 -3 -11 -12 3 -8 0 -14 -6 -14 -7 0 -11 -6 -9 -12 1 -7 -3 -26 -10
-43 -7 -16 -28 -111 -47 -210 -27 -142 -151 -749 -182 -888 -3 -17 -15 -32
-29 -38 -29 -10 -32 -23 -4 -16 26 7 26 -5 0 -21 -23 -14 -44 -7 -33 11 8 14
-80 -37 -127 -73 -19 -15 -89 -67 -155 -116 -106 -79 -181 -132 -493 -350 -80
-56 -157 -101 -117 -68 21 16 128 92 328 229 64 44 211 151 327 237 116 86
216 161 224 165 14 8 67 232 141 593 19 96 42 204 49 240 53 243 77 401 64
417 -5 6 -10 27 -11 47 -2 42 37 27 -487 175 -195 55 -454 129 -575 165 -120
37 -228 66 -240 65 -11 0 -103 -25 -205 -55z m266 -34 c111 -39 515 -155 968
-279 143 -39 262 -73 264 -76 17 -16 -104 14 -518 130 -47 13 -168 47 -270 75
-102 28 -251 71 -333 96 -81 25 -162 45 -180 46 -17 0 -151 -33 -297 -75 -146
-41 -317 -89 -380 -107 -162 -45 -524 -146 -594 -167 l-58 -17 5 -35 c41 -264
105 -549 172 -767 30 -97 57 -179 60 -182 3 -3 5 6 5 19 l1 24 14 -26 c12 -21
20 -26 45 -23 16 2 30 -1 30 -6 0 -6 7 -10 15 -10 9 0 12 -6 9 -15 -4 -8 -2
-15 3 -15 6 0 10 -17 11 -37 0 -32 -1 -35 -8 -15 -14 33 -19 27 -10 -11 5 -23
3 -37 -7 -45 -8 -8 -11 -26 -9 -47 4 -27 1 -33 -11 -28 -28 11 -1 -23 47 -60
59 -44 323 -235 513 -369 83 -59 160 -117 171 -129 l21 -23 -21 15 c-74 49
-238 163 -310 214 -207 148 -204 146 -210 130 -8 -19 -24 -19 -24 0 0 8 4 14
9 13 5 -2 11 0 12 5 2 4 -21 21 -51 39 -30 17 -52 27 -48 23 4 -5 3 -14 -3
-21 -8 -9 -4 -15 13 -24 21 -10 21 -10 5 3 -12 10 -14 17 -8 22 6 3 11 1 11
-5 0 -6 12 -15 26 -20 17 -7 24 -15 20 -25 -3 -9 5 -21 22 -32 36 -23 85 -63
77 -63 -9 0 -203 133 -311 213 l-82 60 -31 126 c-17 69 -46 203 -66 296 -20
94 -51 235 -70 315 -27 118 -105 503 -105 522 0 3 26 11 58 18 31 7 86 21 122
31 36 10 209 56 385 104 176 47 433 119 570 159 138 40 255 74 261 75 6 0 37
-8 70 -19z m-501 -391 c182 -1 340 -4 353 -6 l22 -5 0 -1004 c0 -644 -4 -1004
-10 -1004 -6 0 -10 21 -10 48 0 26 0 327 0 670 0 414 -3 622 -10 622 -9 0 -14
-71 -11 -160 1 -30 0 -33 -11 -19 -13 16 -19 19 -38 19 -5 0 -10 7 -10 16 0 9
5 12 12 8 7 -4 8 -3 4 5 -4 6 -12 9 -17 6 -5 -4 -9 -1 -9 5 0 6 -5 8 -12 4 -9
-6 -9 -9 0 -12 22 -7 12 -20 -20 -25 -69 -11 -73 -13 -74 -43 -2 -58 -4 -64
-19 -64 -14 0 -15 -25 -13 -190 2 -104 7 -190 11 -190 5 0 8 -21 7 -47 -4 -81
-3 -88 17 -72 14 13 16 11 11 -12 -3 -18 1 -30 12 -37 10 -6 21 -27 24 -47 6
-33 10 -37 32 -32 30 5 59 -32 62 -82 2 -18 7 -41 12 -51 7 -12 6 -28 0 -45
-9 -23 -8 -26 5 -21 8 3 15 1 15 -3 0 -5 3 -17 6 -25 5 -12 2 -15 -12 -10 -11
3 -15 2 -8 -3 6 -4 14 -33 17 -62 6 -54 6 -55 -12 -35 -15 15 -92 150 -207
364 -11 20 -14 145 -14 658 l0 633 -341 -2 -341 -1 -122 121 c-68 67 -128 121
-134 121 -7 0 -12 5 -12 11 0 9 67 10 258 5 141 -3 406 -7 587 -7z m1587 -59
c-29 -30 -86 -92 -125 -137 -39 -45 -74 -78 -77 -74 -3 4 -137 11 -297 14
l-293 7 0 -331 0 -331 75 4 c41 2 75 -1 75 -5 0 -4 -37 -7 -82 -5 l-83 3 -5
215 c-3 118 -7 179 -9 135 -2 -44 -6 -70 -8 -57 -6 29 -33 62 -51 62 -9 0 -10
-5 -2 -19 16 -30 12 -33 -19 -16 -28 14 -30 14 -36 -6 -4 -11 -1 -26 5 -34 10
-12 9 -15 -4 -15 -18 0 -22 -15 -6 -25 15 -9 12 -25 -5 -25 -8 0 -15 6 -15 14
0 8 -5 18 -10 21 -13 8 -29 -35 -36 -94 -10 -82 -14 -57 -15 90 0 79 -2 189
-4 244 -3 108 10 281 15 195 l2 -45 12 45 c11 38 14 42 20 24 7 -24 35 -27 52
-5 7 9 21 12 40 8 23 -4 33 -1 42 14 7 10 19 19 26 19 8 0 17 6 20 13 5 10 7
10 12 0 7 -17 24 -17 24 0 0 7 11 14 24 15 40 3 76 21 76 37 0 10 10 15 30 15
17 0 30 5 30 10 0 6 12 10 27 10 48 0 13 15 -50 21 -36 4 28 7 148 7 116 0
269 1 340 3 174 4 -261 16 -642 18 l-273 1 0 -447 c-1 -583 -10 -1416 -15
-1422 -3 -2 -5 422 -5 943 l0 948 563 -4 563 -3 -54 -55z m-2249 -141 c10 -11
15 -24 11 -27 -4 -4 -9 -1 -11 6 -3 6 -10 9 -16 5 -7 -3 -9 -3 -5 2 4 4 3 14
-3 22 -6 7 -7 13 -2 13 5 0 17 -9 26 -21z m1988 -141 c-6 -7 -19 -23 -29 -34
-93 -116 -134 -165 -174 -211 -27 -29 -48 -57 -48 -61 0 -8 33 27 110 118 56
66 158 170 168 170 5 0 -9 -17 -62 -74 -16 -17 -59 -67 -96 -111 -116 -138
-114 -136 -219 -140 l-91 -3 0 174 0 174 183 1 c100 0 200 4 222 8 46 9 51 7
36 -11z m-1341 -163 l0 -165 -99 0 -99 0 -70 88 c-128 160 -175 217 -184 220
-4 2 -8 8 -8 13 0 5 97 9 230 9 l230 0 0 -165z m690 -116 c0 -5 -4 -9 -10 -9
-5 0 -10 7 -10 16 0 8 5 12 10 9 6 -3 10 -10 10 -16z m-1320 -49 c0 -5 -4 -10
-10 -10 -5 0 -10 5 -10 10 0 6 5 10 10 10 6 0 10 -4 10 -10z m1620 -245 c0 -7
-81 -141 -142 -234 l-48 -74 0 -118 c0 -79 -4 -120 -12 -125 -8 -5 -10 13 -5
71 4 43 7 102 7 130 0 46 6 61 43 116 24 35 66 103 92 152 41 74 65 104 65 82z
m-1500 -235 c0 -5 -4 -10 -10 -10 -5 0 -10 5 -10 10 0 6 5 10 10 10 6 0 10 -4
10 -10z m2175 -80 c3 -5 1 -10 -4 -10 -6 0 -11 5 -11 10 0 6 2 10 4 10 3 0 8
-4 11 -10z m-157 -50 c-14 -22 -44 -38 -32 -17 14 23 27 37 35 37 5 0 4 -9 -3
-20z m-1718 0 c8 13 10 13 10 -1 0 -10 -10 -19 -24 -21 -19 -4 -22 -1 -18 14
4 15 7 17 13 6 7 -11 11 -10 19 2z m-70 -197 c0 -1 -15 5 -34 15 -19 9 -32 20
-29 24 3 7 63 -30 63 -39z m1010 -146 c-35 -62 -76 -137 -92 -167 -16 -30 -39
-64 -50 -75 -22 -22 11 43 119 229 35 60 67 121 70 135 6 20 8 22 11 8 2 -10
-24 -68 -58 -130z m-980 81 c0 -6 -6 -5 -15 2 -8 7 -15 14 -15 16 0 2 7 1 15
-2 8 -4 15 -11 15 -16z m85 -58 c3 -6 -1 -7 -9 -4 -18 7 -21 14 -7 14 6 0 13
-4 16 -10z m1415 -54 c0 -3 -4 -8 -10 -11 -5 -3 -10 -1 -10 4 0 6 5 11 10 11
6 0 10 -2 10 -4z m-190 -121 c0 -2 -10 -10 -22 -16 -21 -11 -22 -11 -9 4 13
16 31 23 31 12z m-935 -35 c3 -5 1 -10 -4 -10 -6 0 -11 5 -11 10 0 6 2 10 4
10 3 0 8 -4 11 -10z m915 -70 c-46 -38 -60 -39 -18 0 18 16 38 29 43 29 6 0
-6 -13 -25 -29z m-714 -85 c22 -19 34 -35 28 -35 -5 0 -25 16 -44 35 -44 45
-34 45 16 0z m599 -13 c-54 -47 -131 -95 -93 -59 27 26 83 67 93 67 6 0 6 -3
0 -8z m-316 -202 c-42 -36 -61 -39 -29 -5 13 14 29 25 37 25 7 0 13 5 13 12 0
6 3 8 7 4 4 -3 -9 -20 -28 -36z"/>
<path d="M4190 8776 c0 -2 7 -9 15 -16 9 -7 15 -8 15 -2 0 5 -7 12 -15 16 -8
3 -15 4 -15 2z"/>
<path d="M4265 8680 c3 -5 11 -10 16 -10 6 0 7 5 4 10 -3 6 -11 10 -16 10 -6
0 -7 -4 -4 -10z"/>
<path d="M4602 10053 l207 -3 -23 -25 c-13 -14 -30 -25 -37 -26 -8 -1 -3 -4
11 -8 16 -5 24 -13 22 -24 -2 -10 4 -17 14 -17 13 0 15 -6 10 -31 -5 -27 -4
-30 14 -24 11 4 20 2 20 -4 0 -7 8 -7 24 -1 13 5 26 6 29 3 4 -3 14 3 24 13
17 16 18 16 21 1 2 -10 8 -15 13 -12 5 4 9 1 9 -4 0 -6 7 -11 15 -11 8 0 15 6
15 13 0 8 4 7 10 -3 8 -13 11 -13 19 -1 6 9 12 -11 19 -60 9 -71 9 -67 11 79
l1 152 -327 -2 c-245 -2 -275 -3 -121 -5z"/>
<path d="M4822 8730 c0 -14 2 -19 5 -12 2 6 2 18 0 25 -3 6 -5 1 -5 -13z"/>
<path d="M4940 8506 c0 -2 7 -9 15 -16 13 -11 14 -10 9 4 -5 14 -24 23 -24 12z"/>
<path d="M5448 9862 c12 -8 72 -4 72 4 0 2 -19 4 -42 4 -26 0 -38 -4 -30 -8z"/>
<path d="M5463 9720 c0 -25 2 -35 4 -22 2 12 2 32 0 45 -2 12 -4 2 -4 -23z"/>
<path d="M5599 9487 l-4 -67 83 0 c74 0 103 10 70 23 -10 4 -9 8 2 17 13 10
13 11 -2 6 -10 -3 -21 1 -25 8 -11 18 -43 28 -43 13 0 -8 -4 -6 -10 3 -5 8
-10 11 -10 5 0 -5 -7 -1 -15 9 -15 19 -15 19 -15 1 0 -26 -17 -7 -22 25 -3 14
-6 -5 -9 -43z"/>
<path d="M4630 9460 c0 -5 -26 -11 -57 -13 l-58 -3 63 -2 c49 -2 62 1 62 13 0
8 -2 15 -5 15 -3 0 -5 -4 -5 -10z"/>
<path d="M6451 10144 c0 -11 3 -14 6 -6 3 7 2 16 -1 19 -3 4 -6 -2 -5 -13z"/>
<path d="M6646 10058 c-3 -13 -17 -90 -31 -173 -15 -82 -37 -206 -50 -275 -13
-69 -27 -145 -30 -170 -4 -25 -22 -130 -40 -235 -19 -104 -37 -217 -40 -250
-4 -33 -9 -69 -11 -80 -4 -16 -3 -17 5 -5 9 12 11 11 11 -9 0 -37 10 -19 20
35 5 27 13 67 19 89 18 71 181 1044 181 1081 0 23 -29 16 -34 -8z"/>
<path d="M6446 9889 c-13 -45 -66 -281 -71 -319 -4 -25 -13 -72 -20 -105 -17
-78 -38 -176 -41 -195 -1 -8 -9 -51 -18 -94 -16 -83 -15 -116 3 -50 24 95 40
167 61 274 12 63 33 165 46 226 14 60 27 127 30 148 2 22 9 57 14 80 8 38 6
66 -4 35z"/>
<path d="M5978 8500 c-26 -21 -45 -40 -42 -43 3 -2 15 4 27 14 12 10 36 29 52
43 17 14 26 25 20 25 -5 0 -31 -17 -57 -39z"/>
<path d="M4580 8276 c0 -2 8 -10 18 -17 15 -13 16 -12 3 4 -13 16 -21 21 -21
13z"/>
<path d="M4640 8226 c0 -2 8 -10 18 -17 15 -13 16 -12 3 4 -13 16 -21 21 -21
13z"/>
<path d="M5295 7880 c-3 -6 1 -7 9 -4 18 7 21 14 7 14 -6 0 -13 -4 -16 -10z"/>
<path d="M2160 7045 l0 -45 90 0 c50 0 89 -3 89 -7 -1 -5 -1 -79 0 -165 l1
-158 60 0 60 0 0 165 0 165 99 0 99 0 -1 45 -2 45 -247 0 -248 0 0 -45z"/>
<path d="M2740 6880 l0 -210 60 0 60 0 0 170 0 170 108 0 c161 0 201 -17 186
-76 -9 -37 -33 -44 -143 -44 -56 0 -101 -3 -101 -6 0 -10 52 -63 138 -140 l82
-74 75 0 c41 0 75 4 75 8 0 4 -21 24 -47 45 -59 45 -113 93 -113 100 0 2 19 7
42 10 51 7 87 32 111 78 34 66 -6 148 -82 169 -20 5 -129 10 -243 10 l-208 0
0 -210z"/>
<path d="M3448 6888 c-57 -112 -104 -206 -106 -210 -2 -5 23 -8 55 -8 l59 0
22 45 22 45 133 0 134 0 24 -45 24 -45 62 0 c35 0 63 1 63 3 0 2 -19 37 -42
79 -24 41 -72 134 -108 206 l-65 132 -87 0 -87 0 -103 -202z m202 118 c0 -8
16 -46 35 -85 19 -39 35 -73 35 -76 0 -3 -38 -5 -85 -5 -47 0 -85 2 -85 5 0 3
19 43 42 90 40 80 58 102 58 71z"/>
<path d="M4020 6880 l0 -210 60 0 60 0 0 210 0 210 -60 0 -60 0 0 -210z"/>
<path d="M4250 6880 l0 -211 61 3 61 3 -1 148 -2 149 93 -84 c51 -45 130 -113
174 -151 78 -63 85 -67 133 -67 l51 0 0 210 0 210 -60 0 -60 0 0 -135 0 -135
-117 98 c-223 184 -204 172 -272 172 l-61 0 0 -210z"/>
<path d="M4950 6862 l0 -192 60 0 60 0 0 80 0 80 143 0 143 0 -5 38 -6 37 -3
-33 -3 -34 -135 6 c-126 6 -135 5 -151 -14 -18 -21 -53 -27 -53 -9 0 5 -4 7
-10 4 -5 -3 -10 -16 -10 -27 0 -12 -2 -19 -5 -16 -3 3 -8 63 -12 134 -3 71 -7
131 -9 133 -2 2 -4 -82 -4 -187z"/>
<path d="M5173 7013 c48 -2 126 -2 175 0 48 1 8 3 -88 3 -96 0 -136 -2 -87 -3z"/>
<path d="M5773 7013 c15 -2 37 -2 50 0 12 2 0 4 -28 4 -27 0 -38 -2 -22 -4z"/>
<path d="M6353 7013 c20 -2 54 -2 75 0 20 2 3 4 -38 4 -41 0 -58 -2 -37 -4z"/>
<path d="M7088 7013 c45 -2 119 -2 165 0 45 1 8 3 -83 3 -91 0 -128 -2 -82 -3z"/>
<path d="M7663 7013 c48 -2 126 -2 175 0 48 1 8 3 -88 3 -96 0 -136 -2 -87 -3z"/>
<path d="M6281 6974 c0 -11 3 -14 6 -6 3 7 2 16 -1 19 -3 4 -6 -2 -5 -13z"/>
<path d="M7452 6823 l-2 -153 245 0 245 0 0 40 0 40 -184 0 c-183 0 -184 0
-188 23 -2 12 -1 33 2 47 l6 25 152 3 c84 1 152 6 152 10 0 9 -313 3 -322 -6
-5 -5 -9 -20 -10 -35 -2 -22 -7 -27 -28 -27 -14 0 -31 -5 -37 -11 -13 -13 -21
30 -26 136 -2 33 -4 -9 -5 -92z"/>
<path d="M6182 6818 l-2 -148 55 0 55 0 -2 133 -2 132 -6 -100 c-3 -55 -7 -93
-8 -85 -1 8 -14 26 -28 39 -21 20 -27 22 -34 11 -13 -21 -19 1 -23 90 -2 41
-4 9 -5 -72z"/>
<path d="M6686 6906 c-9 -35 -63 -71 -108 -71 -33 0 -36 -1 -23 -14 12 -12 20
-12 58 3 25 9 52 24 60 34 15 17 34 72 24 72 -3 0 -8 -11 -11 -24z"/>
<path d="M5482 6880 c-1 -68 26 -129 73 -162 53 -37 135 -51 270 -46 94 3 117
8 155 29 52 28 90 88 89 139 l-1 35 -11 -42 c-13 -45 -29 -70 -21 -31 5 22 5
22 -10 4 -16 -20 -16 -20 -16 0 -1 18 -1 18 -14 2 -7 -10 -18 -18 -24 -18 -6
0 -13 -6 -16 -12 -4 -7 -4 -2 -1 12 4 14 8 43 11 65 4 39 4 39 -10 -8 -21 -75
-40 -89 -138 -97 -46 -5 -96 -6 -113 -3 -39 8 -82 38 -90 64 -4 11 -9 18 -12
15 -3 -3 2 -17 11 -30 14 -22 14 -25 1 -20 -8 4 -15 10 -15 14 0 13 -38 22
-60 15 -11 -4 -18 -11 -15 -16 4 -5 4 -9 0 -9 -9 0 -28 52 -35 100 l-7 45 -1
-45z"/>
<path d="M7326 6878 c-4 -24 -10 -38 -14 -33 -8 11 -32 13 -48 3 -6 -4 -26 -3
-45 3 -19 5 -61 9 -94 7 -59 -3 -60 -3 -66 27 -5 30 -5 30 -10 -7 l-5 -38 93
0 93 0 0 -44 0 -43 -94 -6 c-155 -9 -198 10 -222 100 -9 36 -13 41 -13 20 -1
-15 6 -43 14 -63 10 -24 11 -32 2 -27 -7 4 -16 8 -22 8 -5 1 -9 6 -8 11 1 6
-4 11 -12 11 -8 0 -12 -5 -9 -11 3 -6 -4 0 -15 13 -12 13 -21 17 -21 10 0 -23
-13 0 -21 38 -7 31 -8 27 -4 -21 5 -73 25 -103 91 -136 46 -24 59 -25 247 -28
l197 -4 0 126 c0 69 -2 126 -4 126 -2 0 -6 -19 -10 -42z"/>
<path d="M7872 6900 c0 -14 2 -19 5 -12 2 6 2 18 0 25 -3 6 -5 1 -5 -13z"/>
<path d="M6350 6867 c0 -3 48 -49 106 -102 l106 -95 89 1 c49 0 89 4 89 8 0 3
-16 15 -36 26 -20 11 -59 36 -87 57 -28 21 -56 38 -63 38 -6 0 -15 7 -18 16
-4 10 -13 13 -26 9 -12 -4 -28 -1 -37 7 -19 16 -73 19 -73 5 0 -6 -11 0 -25
13 -14 13 -25 21 -25 17z"/>
<path d="M2158 6352 c-3 -61 7 -97 14 -50 2 18 11 24 36 26 43 4 41 22 -3 22
-30 0 -35 3 -35 24 0 22 5 25 43 28 l42 3 -47 5 -47 5 -3 -63z"/>
<path d="M2790 6354 l0 -67 -35 6 c-19 3 -35 2 -35 -4 0 -16 77 -11 84 7 10
26 7 124 -4 124 -6 0 -10 -29 -10 -66z"/>
<path d="M3077 6412 c-2 -4 0 -36 3 -72 l7 -65 1 53 c2 57 14 67 31 25 14 -38
46 -73 65 -73 13 0 16 12 16 65 0 37 -4 65 -10 65 -5 0 -10 -26 -10 -57 l-1
-58 -29 35 c-17 19 -30 39 -30 45 0 14 -38 47 -43 37z"/>
<path d="M3293 6413 c-9 -3 -13 -27 -13 -69 l0 -64 49 0 c31 0 53 5 61 15 10
12 10 15 -4 15 -9 0 -16 -4 -16 -9 0 -5 -16 -9 -35 -9 l-35 0 0 54 c0 37 4 54
13 53 37 -3 62 -17 68 -39 l7 -25 1 26 c1 15 -5 31 -11 37 -16 12 -69 22 -85
15z"/>
<path d="M3505 6408 c-28 -16 -35 -28 -35 -64 0 -44 20 -66 62 -67 27 -1 42 5
57 24 11 13 20 30 21 37 0 23 -30 72 -44 72 -8 0 -20 2 -28 5 -7 2 -22 -1 -33
-7z m69 -30 c20 -29 20 -47 -1 -70 -22 -24 -48 -23 -73 4 -22 24 -19 54 8 76
24 18 49 15 66 -10z"/>
<path d="M4297 6414 c-7 -7 6 -134 14 -134 5 0 9 11 9 25 0 21 5 25 30 25 17
0 30 5 30 10 0 6 -13 10 -30 10 -25 0 -30 4 -30 24 0 20 6 25 33 28 30 3 29 4
-11 9 -24 2 -44 4 -45 3z"/>
<path d="M5276 6412 c-3 -3 -5 -35 -4 -71 1 -56 2 -59 5 -18 5 57 22 61 53 12
12 -19 26 -35 31 -35 11 0 12 27 2 32 -5 2 -25 22 -45 45 -20 23 -39 39 -42
35z"/>
<path d="M5507 6407 c-27 -9 -42 -40 -39 -81 1 -23 41 -51 67 -48 44 6 65 13
65 22 0 6 -10 6 -27 -1 -52 -20 -99 12 -87 59 7 26 60 50 77 33 6 -6 17 -11
25 -11 11 0 12 3 3 14 -16 19 -51 24 -84 13z"/>
<path d="M6573 6410 c-40 -16 -23 -70 22 -70 30 0 47 -14 39 -33 -8 -21 -33
-22 -62 -1 -12 8 -22 12 -22 7 1 -35 63 -50 91 -22 34 34 24 54 -28 62 -27 4
-36 12 -39 33 -2 13 5 15 36 12 22 -2 36 -1 32 3 -14 13 -47 17 -69 9z"/>
<path d="M6837 6413 c-4 -3 -7 -28 -7 -54 0 -34 -5 -51 -16 -57 -42 -23 -71
15 -62 78 3 20 0 30 -9 30 -17 0 -18 -104 0 -117 27 -22 63 -23 85 -2 17 16
22 31 22 74 0 56 -1 60 -13 48z"/>
<path d="M7862 6409 c-38 -14 -25 -50 23 -68 50 -18 49 -17 42 -34 -4 -11 -16
-12 -50 -7 -33 5 -44 3 -40 -6 7 -20 64 -26 90 -9 39 26 28 53 -31 72 -39 12
-42 38 -5 39 16 1 29 -3 29 -8 0 -5 5 -6 11 -2 28 17 -32 37 -69 23z"/>
<path d="M2336 6394 c-22 -21 -20 -77 2 -97 25 -23 74 -21 101 2 19 16 22 26
16 53 -4 18 -15 38 -24 45 -23 17 -77 16 -95 -3z m94 -23 c18 -34 12 -61 -15
-71 -40 -15 -75 6 -75 45 0 40 5 45 46 45 23 0 37 -6 44 -19z"/>
<path d="M2535 6345 c0 -36 3 -65 8 -65 4 0 7 9 7 20 0 13 7 20 20 20 10 0 24
-9 30 -20 12 -23 40 -27 40 -6 0 7 -10 17 -22 21 -18 5 -19 8 -8 12 20 8 30
24 30 49 0 25 -17 34 -68 34 l-37 0 0 -65z m73 46 c24 -15 9 -45 -26 -52 -35
-7 -41 5 -22 42 11 20 27 24 48 10z"/>
<path d="M2903 6373 c-26 -63 -33 -95 -21 -91 7 3 19 25 27 50 21 62 28 67 36
24 4 -20 12 -36 17 -36 6 0 8 -9 5 -20 -4 -16 0 -20 21 -20 15 0 22 4 16 8 -5
4 -21 33 -33 65 -13 32 -30 57 -38 57 -8 0 -21 -17 -30 -37z"/>
<path d="M3770 6345 c0 -37 4 -65 10 -65 6 0 10 11 10 24 0 18 5 24 25 24 46
0 72 41 43 70 -7 7 -29 12 -50 12 l-38 0 0 -65z m78 31 c4 -20 -13 -36 -40
-36 -13 0 -18 8 -18 31 0 27 3 30 27 27 18 -2 29 -10 31 -22z"/>
<path d="M3944 6345 l0 -65 43 0 c26 0 42 4 38 10 -3 5 -19 7 -35 3 -27 -5
-30 -3 -30 21 0 15 4 25 8 22 5 -3 22 -1 38 4 29 8 29 8 -8 9 -33 1 -38 4 -38
25 0 21 5 25 38 29 35 3 35 4 -9 5 l-45 2 0 -65z"/>
<path d="M4110 6339 c0 -48 3 -68 11 -63 6 3 8 16 5 28 -7 30 31 30 51 -1 9
-13 22 -23 31 -23 12 0 10 6 -8 25 -13 14 -18 25 -12 25 17 0 34 38 27 60 -5
16 -15 20 -56 20 l-49 0 0 -71z m74 55 c9 -3 16 -14 16 -24 0 -19 -19 -30 -51
-30 -14 0 -19 7 -19 30 0 31 17 38 54 24z"/>
<path d="M4466 6394 c-18 -18 -21 -66 -6 -95 14 -26 90 -27 113 -1 22 25 21
75 -1 95 -23 21 -86 22 -106 1z m76 -4 c18 -9 23 -19 23 -46 0 -51 -45 -72
-79 -38 -22 21 -20 50 4 74 23 23 22 23 52 10z"/>
<path d="M4670 6339 c0 -44 4 -68 10 -64 6 3 10 17 10 31 0 32 19 31 46 -3 12
-16 26 -25 30 -20 4 4 3 12 -3 18 -8 8 -8 18 -1 34 6 13 8 35 4 49 -6 23 -11
26 -51 26 l-45 0 0 -71z m67 53 c6 -4 13 -16 15 -27 2 -16 -3 -21 -29 -23 -31
-3 -33 -1 -33 27 0 31 19 41 47 23z"/>
<path d="M4860 6345 c0 -37 4 -65 10 -65 6 0 10 19 10 43 0 23 3 52 6 65 5 16
2 22 -10 22 -13 0 -16 -12 -16 -65z"/>
<path d="M4956 6370 c-20 -50 -20 -56 -1 -40 8 7 14 19 13 28 -2 8 3 17 10 19
9 4 12 -8 10 -43 -2 -29 1 -49 9 -51 8 -3 11 16 10 61 -1 54 -5 66 -18 66 -10
0 -23 -16 -33 -40z"/>
<path d="M5114 6388 c-3 -13 -15 -43 -26 -66 -11 -24 -17 -47 -13 -50 11 -11
41 37 43 70 3 34 9 48 22 48 15 0 22 -38 10 -60 -9 -16 -8 -20 5 -20 8 0 15
-7 15 -15 0 -8 7 -15 14 -15 12 0 12 10 -5 57 -25 73 -51 94 -65 51z"/>
<path d="M5380 6361 c0 -27 -3 -56 -6 -65 -4 -10 -1 -16 9 -16 11 0 14 14 13
65 -1 75 -16 89 -16 16z"/>
<path d="M5670 6345 l0 -65 53 2 c51 1 51 2 9 5 -38 4 -43 7 -40 26 2 16 12
24 38 28 l35 6 -37 2 c-33 1 -38 4 -38 25 0 21 5 25 38 29 34 3 33 4 -10 5
l-48 2 0 -65z"/>
<path d="M5940 6345 l0 -65 48 2 c43 1 44 2 10 5 -32 4 -38 8 -38 28 0 22 3
24 30 19 19 -4 30 -2 30 5 0 6 -16 11 -35 11 -57 0 -44 45 15 53 30 3 28 4
-12 5 l-48 2 0 -65z"/>
<path d="M6191 6338 c1 -49 4 -63 8 -43 3 17 11 30 18 30 6 0 15 3 19 8 4 4 0
7 -9 7 -12 0 -17 9 -17 30 0 27 3 30 30 30 38 0 49 -24 28 -61 -15 -25 -15
-29 1 -43 23 -21 37 -21 20 0 -10 12 -10 22 0 50 17 47 2 64 -55 64 l-44 0 1
-72z"/>
<path d="M6380 6345 l0 -65 53 1 c51 2 51 2 12 8 -44 7 -64 40 -26 42 33 2 39
4 47 12 4 4 -9 7 -29 7 -33 0 -37 3 -37 24 0 22 5 25 43 29 40 3 40 4 -10 5
l-53 2 0 -65z"/>
<path d="M6930 6345 l0 -65 51 0 c29 0 48 4 44 10 -3 5 -21 8 -40 6 l-35 -2 0
58 c0 32 -4 58 -10 58 -6 0 -10 -28 -10 -65z"/>
<path d="M7085 6400 c-4 -6 5 -10 19 -10 25 0 26 -3 26 -55 0 -30 5 -55 10
-55 6 0 10 25 10 55 0 48 3 55 19 55 11 0 23 5 26 10 4 6 -15 10 -49 10 -30 0
-58 -4 -61 -10z"/>
<path d="M7276 6358 c-11 -29 -23 -59 -29 -65 -7 -9 -5 -13 6 -13 20 0 28 13
34 53 2 18 10 38 17 45 10 10 15 6 23 -23 9 -29 9 -35 -3 -35 -10 0 -8 -6 6
-20 17 -17 40 -27 40 -17 0 19 -51 123 -62 125 -9 2 -21 -17 -32 -50z"/>
<path d="M7448 6346 l4 -66 40 0 c57 0 78 14 78 53 0 50 -19 69 -76 74 l-49 5
3 -66z m80 38 c14 -10 22 -26 22 -44 0 -32 -5 -37 -42 -44 -20 -3 -27 0 -32
17 -10 37 -7 75 7 80 19 8 21 8 45 -9z"/>
<path d="M7650 6388 c-41 -44 -7 -107 56 -108 55 0 86 62 52 105 -26 33 -79
34 -108 3z m74 2 c48 -18 29 -100 -23 -100 -16 0 -51 38 -51 55 0 13 33 55 44
55 3 0 16 -4 30 -10z"/>
<path d="M4894 6368 c2 -7 10 -30 17 -50 7 -21 16 -38 20 -38 13 0 22 22 12
29 -6 3 -18 21 -27 39 -16 30 -34 46 -22 20z"/>
<path d="M3392 6334 c-7 -8 -8 -14 -3 -14 10 0 25 19 20 25 -2 1 -10 -3 -17
-11z"/>
<path d="M1682 6333 c48 -2 129 -2 180 0 51 1 12 3 -87 3 -99 0 -141 -2 -93
-3z"/>
<path d="M8222 6333 c37 -2 100 -2 140 0 40 1 10 3 -67 3 -77 0 -110 -1 -73
-3z"/>
</g>
</svg>
